<svg width="42" height="48" viewBox="0 0 42 48" fill="none" xmlns="http://www.w3.org/2000/svg">
<path d="M39.8759 25.1119L37.8866 25.6649V31.2913C37.8869 32.1495 37.8218 33.0064 37.692 33.8547L39.408 33.1508C40.1749 32.8362 40.8307 32.3017 41.2922 31.6152C41.7536 30.9286 42 30.1209 42 29.2946V26.7187C42 26.4614 41.9403 26.2075 41.8255 25.977C41.7107 25.7465 41.5439 25.5456 41.3382 25.39C41.1325 25.2345 40.8935 25.1284 40.6398 25.0801C40.3861 25.0319 40.1247 25.0428 39.8759 25.1119Z" fill="url(#paint0_linear_62069_5046)"/>
<path d="M4.11169 31.2913V25.6649L2.12406 25.1119C1.87531 25.0428 1.61387 25.0319 1.3602 25.0801C1.10653 25.1284 0.867502 25.2345 0.661812 25.39C0.456122 25.5456 0.28935 25.7466 0.174538 25.977C0.0597267 26.2075 -1.033e-05 26.4614 9.16865e-09 26.7187V29.2946C-5.48542e-05 30.1207 0.24611 30.9281 0.707275 31.6146C1.16844 32.3011 1.82383 32.8356 2.59031 33.1504L4.3063 33.8543C4.17631 33.0062 4.11125 32.1493 4.11169 31.2913Z" fill="url(#paint1_linear_62069_5046)"/>
<path d="M31.0306 14.0028C27.7641 14.9167 24.3925 15.4052 21 15.4561C17.6075 15.4052 14.2359 14.9167 10.9694 14.0028C10.2365 21.4504 4.11168 25.6648 4.11168 25.6648V31.2913C4.14307 35.7335 5.93616 39.9831 9.09984 43.1132C12.2635 46.2434 16.5411 48 20.9996 48C25.458 48 29.7356 46.2434 32.8993 43.1132C36.063 39.9831 37.8561 35.7335 37.8875 31.2913V25.6648C37.8875 25.6648 31.7635 21.4504 31.0306 14.0028Z" fill="url(#paint2_linear_62069_5046)"/>
<path d="M20.9999 15.4562C17.6074 15.4053 14.2358 14.9168 10.9693 14.0028C10.2364 21.4504 4.11161 25.6648 4.11161 25.6648C4.11161 25.6648 -3.61455 5.91889 10.4294 5.33131C10.4294 5.33131 13.2558 -3.94365 29.0843 1.97346C44.4718 7.72501 39.698 22.5422 37.8882 25.6648C37.8882 25.6648 31.7634 21.4504 31.0305 14.0028C27.764 14.9168 24.3924 15.4053 20.9999 15.4562Z" fill="#E61C44"/>
<path d="M10.0624 33.8547C10.6419 36.3116 12.0376 38.5013 14.023 40.0685C16.0084 41.6357 18.467 42.4885 21 42.4885C23.5329 42.4885 25.9916 41.6357 27.977 40.0685C29.9624 38.5013 31.3581 36.3116 31.9376 33.8547H10.0624Z" fill="#495BCC"/>
<path d="M29.0736 39.0679C28.028 40.149 26.7744 41.009 25.3878 41.5965C24.0011 42.184 22.5099 42.487 21.003 42.4874C19.4962 42.4878 18.0048 42.1856 16.6178 41.5988C15.2309 41.012 13.9768 40.1526 12.9307 39.0721C12.9307 39.0721 15.9358 37.4207 21.0042 37.4207C25.9178 37.4207 28.8936 38.972 29.0736 39.0679Z" fill="#E61C44"/>
<path d="M11.9509 26.189C11.8061 26.1892 11.6644 26.1466 11.5439 26.0666C11.4234 25.9865 11.3294 25.8727 11.2738 25.7394C11.2183 25.6061 11.2036 25.4594 11.2318 25.3179C11.2599 25.1763 11.3296 25.0463 11.4319 24.9442C12.3082 24.1998 13.422 23.7909 14.5735 23.7909C15.7249 23.7909 16.8387 24.1998 17.715 24.9442C17.8487 25.0815 17.923 25.2657 17.9218 25.4571C17.9205 25.6484 17.8439 25.8317 17.7084 25.9673C17.5729 26.1029 17.3893 26.1801 17.1973 26.1821C17.0052 26.1842 16.82 26.111 16.6816 25.9784C16.0816 25.5074 15.3403 25.251 14.5765 25.2503C13.8127 25.2495 13.0708 25.5045 12.4699 25.9742C12.4019 26.0423 12.321 26.0963 12.2319 26.1332C12.1429 26.17 12.0474 26.189 11.9509 26.189Z" fill="#495BCC"/>
<path d="M30.0493 26.1889C29.8569 26.1898 29.672 26.1149 29.5349 25.9804C28.9341 25.5086 28.1914 25.252 27.4265 25.252C26.6616 25.252 25.9189 25.5086 25.3181 25.9804C25.1796 26.113 24.9944 26.1861 24.8024 26.184C24.6103 26.1818 24.4268 26.1046 24.2913 25.9689C24.1558 25.8332 24.0793 25.65 24.0782 25.4586C24.077 25.2672 24.1514 25.083 24.2852 24.9458C25.1613 24.2012 26.2752 23.7922 27.4267 23.7922C28.5783 23.7922 29.6921 24.2012 30.5682 24.9458C30.6705 25.0479 30.74 25.1779 30.768 25.3194C30.7961 25.4609 30.7814 25.6075 30.7259 25.7407C30.6703 25.8739 30.5764 25.9876 30.456 26.0676C30.3355 26.1477 30.194 26.1903 30.0493 26.1902V26.1889Z" fill="#495BCC"/>
<defs>
<linearGradient id="paint0_linear_62069_5046" x1="39.3966" y1="27.7824" x2="43.6452" y2="29.8612" gradientUnits="userSpaceOnUse">
<stop stop-color="white"/>
<stop offset="1" stop-color="#C5C9F7"/>
</linearGradient>
<linearGradient id="paint1_linear_62069_5046" x1="1.70386" y1="27.7823" x2="5.95141" y2="29.8598" gradientUnits="userSpaceOnUse">
<stop stop-color="white"/>
<stop offset="1" stop-color="#C5C9F7"/>
</linearGradient>
<linearGradient id="paint2_linear_62069_5046" x1="17.4756" y1="24.5519" x2="38.2545" y2="45.1938" gradientUnits="userSpaceOnUse">
<stop stop-color="white"/>
<stop offset="1" stop-color="#C5C9F7"/>
</linearGradient>
</defs>
</svg>
