<svg width="375" height="359" viewBox="0 0 375 359" fill="none" xmlns="http://www.w3.org/2000/svg">
<path d="M344.961 16.6432C344.961 15.9332 345.326 15.2764 345.92 14.9176L370.145 0.277202C371.437 -0.503596 373.062 0.457826 373.062 2.00278V139.578C373.062 140.288 372.697 140.945 372.103 141.304L347.879 155.944C346.587 156.725 344.961 155.763 344.961 154.219V16.6432Z" fill="url(#paint0_linear_62074_843)"/>
<path d="M0 219.411C0 218.698 0.367838 218.039 0.965462 217.681L27.1283 202.019C28.4202 201.245 30.0388 202.207 30.0388 203.748V341.335C30.0388 342.048 29.6709 342.707 29.0733 343.065L2.91051 358.727C1.61852 359.5 0 358.539 0 356.997V219.411Z" fill="url(#paint1_linear_62074_843)"/>
<path d="M54.2636 187.553C54.2636 186.833 54.6387 186.169 55.2457 185.814L317.843 32.1732C319.134 31.4173 320.736 32.3802 320.736 33.9127V171.05C320.736 171.77 320.361 172.434 319.754 172.789L57.1574 326.43C55.8655 327.186 54.2636 326.223 54.2636 324.69V187.553Z" fill="url(#paint2_linear_62074_843)"/>
<path d="M166.337 65.8685C166.337 64.3374 164.737 63.3742 163.445 64.1275L0.98459 158.853C0.376202 159.208 0 159.873 0 160.594V185.873C0 187.405 1.59948 188.368 2.89139 187.614L165.352 92.889C165.96 92.5342 166.337 91.869 166.337 91.1479V65.8685Z" fill="url(#paint3_linear_62074_843)"/>
<path d="M375 172.73C375 171.198 373.401 170.235 372.109 170.989L209.648 265.714C209.04 266.069 208.663 266.734 208.663 267.455V292.734C208.663 294.266 210.263 295.229 211.555 294.475L374.015 199.75C374.624 199.395 375 198.73 375 198.009V172.73Z" fill="url(#paint4_linear_62074_843)"/>
<path d="M109.832 152H105.472C103.365 152 101.739 151.44 100.592 150.32C99.4452 149.2 98.8719 147.587 98.8719 145.48V132.8C98.8719 130.693 99.4452 129.08 100.592 127.96C101.739 126.84 103.365 126.28 105.472 126.28H109.832C111.912 126.28 113.525 126.853 114.672 128C115.845 129.12 116.432 130.72 116.432 132.8V134.68C116.432 135.267 116.139 135.56 115.552 135.56H112.192C111.632 135.56 111.352 135.267 111.352 134.68V133.04C111.352 132.187 111.165 131.587 110.792 131.24C110.445 130.867 109.845 130.68 108.992 130.68H106.272C105.445 130.68 104.845 130.867 104.472 131.24C104.125 131.587 103.952 132.187 103.952 133.04V145.24C103.952 146.093 104.125 146.707 104.472 147.08C104.845 147.427 105.445 147.6 106.272 147.6H108.992C109.845 147.6 110.445 147.427 110.792 147.08C111.165 146.707 111.352 146.093 111.352 145.24V143.6C111.352 143.013 111.632 142.72 112.192 142.72H115.552C116.139 142.72 116.432 143.013 116.432 143.6V145.48C116.432 147.56 115.845 149.173 114.672 150.32C113.525 151.44 111.912 152 109.832 152Z" fill="#FAFF00"/>
<path d="M130.155 152H126.595C124.489 152 122.862 151.44 121.715 150.32C120.569 149.2 119.995 147.587 119.995 145.48V138.12C119.995 136.013 120.569 134.4 121.715 133.28C122.862 132.16 124.489 131.6 126.595 131.6H130.155C132.235 131.6 133.849 132.173 134.995 133.32C136.169 134.44 136.755 136.04 136.755 138.12V145.48C136.755 147.56 136.169 149.173 134.995 150.32C133.849 151.44 132.235 152 130.155 152ZM127.355 147.64H129.395C130.249 147.64 130.849 147.467 131.195 147.12C131.569 146.773 131.755 146.173 131.755 145.32V138.28C131.755 137.427 131.569 136.827 131.195 136.48C130.849 136.133 130.249 135.96 129.395 135.96H127.355C126.502 135.96 125.902 136.133 125.555 136.48C125.209 136.827 125.035 137.427 125.035 138.28V145.32C125.035 146.173 125.209 146.773 125.555 147.12C125.902 147.467 126.502 147.64 127.355 147.64Z" fill="#FAFF00"/>
<path d="M144.987 152H141.587C141.027 152 140.747 151.72 140.747 151.16V132.44C140.747 131.88 141.027 131.6 141.587 131.6H144.987C145.547 131.6 145.827 131.88 145.827 132.44V133.76H145.987C146.574 132.32 147.88 131.6 149.907 131.6H151.187C155.374 131.6 157.467 133.773 157.467 138.12V151.16C157.467 151.72 157.174 152 156.587 152H153.227C152.667 152 152.387 151.72 152.387 151.16V138.36C152.387 137.507 152.2 136.907 151.827 136.56C151.48 136.187 150.88 136 150.027 136H148.587C146.747 136 145.827 137.013 145.827 139.04V151.16C145.827 151.72 145.547 152 144.987 152Z" fill="#FAFF00"/>
<path d="M176.724 152H167.884C165.778 152 164.151 151.44 163.004 150.32C161.858 149.2 161.284 147.587 161.284 145.48V138.12C161.284 136.013 161.858 134.4 163.004 133.28C164.151 132.16 165.778 131.6 167.884 131.6H171.044C173.151 131.6 174.778 132.16 175.924 133.28C177.071 134.4 177.644 136.013 177.644 138.12V143.2C177.644 143.76 177.364 144.04 176.804 144.04H166.764C166.444 144.04 166.284 144.187 166.284 144.48V145.36C166.284 146.187 166.458 146.787 166.804 147.16C167.178 147.507 167.791 147.68 168.644 147.68H176.724C177.284 147.68 177.564 147.973 177.564 148.56V151.2C177.564 151.493 177.498 151.707 177.364 151.84C177.258 151.947 177.044 152 176.724 152ZM166.764 140.64H172.204C172.498 140.64 172.644 140.493 172.644 140.2V138.28C172.644 137.427 172.471 136.827 172.124 136.48C171.778 136.133 171.178 135.96 170.324 135.96H168.644C167.791 135.96 167.191 136.133 166.844 136.48C166.498 136.827 166.324 137.427 166.324 138.28V140.2C166.324 140.493 166.471 140.64 166.764 140.64Z" fill="#FAFF00"/>
<path d="M194.45 148.44V151.2C194.45 151.493 194.383 151.707 194.25 151.84C194.143 151.947 193.93 152 193.61 152H187.65C185.543 152 183.917 151.44 182.77 150.32C181.623 149.2 181.05 147.587 181.05 145.48V138.12C181.05 136.013 181.623 134.4 182.77 133.28C183.917 132.16 185.543 131.6 187.65 131.6H193.61C194.17 131.6 194.45 131.88 194.45 132.44V135.2C194.45 135.493 194.383 135.707 194.25 135.84C194.143 135.947 193.93 136 193.61 136H188.45C187.623 136 187.023 136.187 186.65 136.56C186.303 136.907 186.13 137.507 186.13 138.36V145.24C186.13 146.093 186.303 146.707 186.65 147.08C187.023 147.427 187.623 147.6 188.45 147.6H193.61C194.17 147.6 194.45 147.88 194.45 148.44Z" fill="#FAFF00"/>
<path d="M198.335 136H196.735C196.415 136 196.189 135.947 196.055 135.84C195.949 135.733 195.895 135.52 195.895 135.2V132.44C195.895 131.88 196.175 131.6 196.735 131.6H198.335C198.629 131.6 198.775 131.453 198.775 131.16V127.36C198.775 126.8 199.069 126.52 199.655 126.52H203.015C203.575 126.52 203.855 126.8 203.855 127.36V131.16C203.855 131.453 204.015 131.6 204.335 131.6H207.455C208.015 131.6 208.295 131.88 208.295 132.44V135.2C208.295 135.493 208.229 135.707 208.095 135.84C207.989 135.947 207.775 136 207.455 136H204.335C204.015 136 203.855 136.147 203.855 136.44V145.28C203.855 146.107 204.042 146.707 204.415 147.08C204.789 147.427 205.402 147.6 206.255 147.6H207.855C208.415 147.6 208.695 147.88 208.695 148.44V151.2C208.695 151.493 208.629 151.707 208.495 151.84C208.389 151.947 208.175 152 207.855 152H205.415C203.309 152 201.669 151.44 200.495 150.32C199.349 149.2 198.775 147.6 198.775 145.52V136.44C198.775 136.147 198.629 136 198.335 136Z" fill="#FAFF00"/>
<path d="M227.037 152H218.197C216.09 152 214.464 151.44 213.317 150.32C212.17 149.2 211.597 147.587 211.597 145.48V138.12C211.597 136.013 212.17 134.4 213.317 133.28C214.464 132.16 216.09 131.6 218.197 131.6H221.357C223.464 131.6 225.09 132.16 226.237 133.28C227.384 134.4 227.957 136.013 227.957 138.12V143.2C227.957 143.76 227.677 144.04 227.117 144.04H217.077C216.757 144.04 216.597 144.187 216.597 144.48V145.36C216.597 146.187 216.77 146.787 217.117 147.16C217.49 147.507 218.104 147.68 218.957 147.68H227.037C227.597 147.68 227.877 147.973 227.877 148.56V151.2C227.877 151.493 227.81 151.707 227.677 151.84C227.57 151.947 227.357 152 227.037 152ZM217.077 140.64H222.517C222.81 140.64 222.957 140.493 222.957 140.2V138.28C222.957 137.427 222.784 136.827 222.437 136.48C222.09 136.133 221.49 135.96 220.637 135.96H218.957C218.104 135.96 217.504 136.133 217.157 136.48C216.81 136.827 216.637 137.427 216.637 138.28V140.2C216.637 140.493 216.784 140.64 217.077 140.64Z" fill="#FAFF00"/>
<path d="M239.602 141.28H232.002C231.442 141.28 231.162 141 231.162 140.44V138.08C231.162 137.493 231.442 137.2 232.002 137.2H239.602C240.162 137.2 240.442 137.493 240.442 138.08V140.44C240.442 141 240.162 141.28 239.602 141.28Z" fill="#FAFF00"/>
<path d="M251.943 152H244.343C243.81 152 243.543 151.72 243.543 151.16V148.6C243.543 148.307 243.597 148.107 243.703 148C243.81 147.867 244.023 147.8 244.343 147.8H251.023C252.33 147.8 252.983 147.4 252.983 146.6V146.4C252.983 145.76 252.437 145.147 251.343 144.56L247.383 142.36C246.023 141.667 245.023 140.92 244.383 140.12C243.743 139.32 243.423 138.293 243.423 137.04C243.423 135.173 243.917 133.8 244.903 132.92C245.89 132.04 247.437 131.6 249.543 131.6H256.223C256.757 131.6 257.023 131.88 257.023 132.44V135.04C257.023 135.333 256.97 135.547 256.863 135.68C256.757 135.787 256.543 135.84 256.223 135.84H250.663C249.357 135.84 248.703 136.173 248.703 136.84V137.04C248.703 137.627 249.277 138.227 250.423 138.84L254.463 141.24C255.85 141.987 256.823 142.76 257.383 143.56C257.943 144.333 258.223 145.36 258.223 146.64C258.223 150.213 256.13 152 251.943 152Z" fill="#FAFF00"/>
<path d="M276.802 152H267.962C265.856 152 264.229 151.44 263.082 150.32C261.936 149.2 261.362 147.587 261.362 145.48V138.12C261.362 136.013 261.936 134.4 263.082 133.28C264.229 132.16 265.856 131.6 267.962 131.6H271.122C273.229 131.6 274.856 132.16 276.003 133.28C277.149 134.4 277.722 136.013 277.722 138.12V143.2C277.722 143.76 277.443 144.04 276.883 144.04H266.842C266.522 144.04 266.362 144.187 266.362 144.48V145.36C266.362 146.187 266.536 146.787 266.883 147.16C267.256 147.507 267.869 147.68 268.722 147.68H276.802C277.362 147.68 277.642 147.973 277.642 148.56V151.2C277.642 151.493 277.576 151.707 277.443 151.84C277.336 151.947 277.122 152 276.802 152ZM266.842 140.64H272.282C272.576 140.64 272.722 140.493 272.722 140.2V138.28C272.722 137.427 272.549 136.827 272.202 136.48C271.856 136.133 271.256 135.96 270.402 135.96H268.722C267.869 135.96 267.269 136.133 266.922 136.48C266.576 136.827 266.402 137.427 266.402 138.28V140.2C266.402 140.493 266.549 140.64 266.842 140.64Z" fill="#FAFF00"/>
<path d="M76.5291 192H67.689C65.5824 192 63.9557 191.44 62.8091 190.32C61.6624 189.2 61.0891 187.587 61.0891 185.48V178.12C61.0891 176.013 61.6624 174.4 62.8091 173.28C63.9557 172.16 65.5824 171.6 67.689 171.6H70.8491C72.9557 171.6 74.5824 172.16 75.729 173.28C76.8757 174.4 77.4491 176.013 77.4491 178.12V183.2C77.4491 183.76 77.1691 184.04 76.6091 184.04H66.5691C66.2491 184.04 66.0891 184.187 66.0891 184.48V185.36C66.0891 186.187 66.2624 186.787 66.6091 187.16C66.9824 187.507 67.5957 187.68 68.4491 187.68H76.5291C77.0891 187.68 77.369 187.973 77.369 188.56V191.2C77.369 191.493 77.3024 191.707 77.1691 191.84C77.0624 191.947 76.8491 192 76.5291 192ZM66.5691 180.64H72.009C72.3024 180.64 72.4491 180.493 72.4491 180.2V178.28C72.4491 177.427 72.2757 176.827 71.929 176.48C71.5824 176.133 70.9824 175.96 70.1291 175.96H68.4491C67.5957 175.96 66.9957 176.133 66.649 176.48C66.3024 176.827 66.1291 177.427 66.1291 178.28V180.2C66.1291 180.493 66.2757 180.64 66.5691 180.64Z" fill="#FAFF00"/>
<path d="M99.8037 192H96.2437C94.1371 192 92.5104 191.44 91.3637 190.32C90.2171 189.2 89.6437 187.587 89.6437 185.48V178.12C89.6437 176.013 90.2171 174.4 91.3637 173.28C92.5104 172.16 94.1371 171.6 96.2437 171.6H99.8037C101.884 171.6 103.497 172.173 104.644 173.32C105.817 174.44 106.404 176.04 106.404 178.12V185.48C106.404 187.56 105.817 189.173 104.644 190.32C103.497 191.44 101.884 192 99.8037 192ZM97.0037 187.64H99.0437C99.8971 187.64 100.497 187.467 100.844 187.12C101.217 186.773 101.404 186.173 101.404 185.32V178.28C101.404 177.427 101.217 176.827 100.844 176.48C100.497 176.133 99.8971 175.96 99.0437 175.96H97.0037C96.1504 175.96 95.5504 176.133 95.2037 176.48C94.8571 176.827 94.6837 177.427 94.6837 178.28V185.32C94.6837 186.173 94.8571 186.773 95.2037 187.12C95.5504 187.467 96.1504 187.64 97.0037 187.64Z" fill="#FAFF00"/>
<path d="M114.635 192H111.235C110.675 192 110.395 191.72 110.395 191.16V172.44C110.395 171.88 110.675 171.6 111.235 171.6H114.635C115.195 171.6 115.475 171.88 115.475 172.44V173.8H115.635C115.929 173.08 116.449 172.533 117.195 172.16C117.942 171.787 118.729 171.6 119.555 171.6H120.995C121.529 171.6 121.795 171.88 121.795 172.44V175.2C121.795 175.52 121.729 175.747 121.595 175.88C121.489 175.987 121.289 176.027 120.995 176H118.235C116.395 176 115.475 177.04 115.475 179.12V191.16C115.475 191.72 115.195 192 114.635 192Z" fill="#FAFF00"/>
<path d="M131.541 191.08H130.221C128.167 191.08 126.607 190.52 125.541 189.4C124.501 188.28 123.981 186.667 123.981 184.56V178.12C123.981 176.013 124.554 174.4 125.701 173.28C126.847 172.16 128.474 171.6 130.581 171.6H139.821C140.407 171.6 140.701 171.88 140.701 172.44V192.16C140.701 194.24 140.114 195.84 138.941 196.96C137.794 198.08 136.181 198.64 134.101 198.64H126.421C126.101 198.64 125.874 198.573 125.741 198.44C125.634 198.333 125.581 198.133 125.581 197.84V195.08C125.581 194.52 125.861 194.24 126.421 194.24H133.261C134.114 194.24 134.714 194.053 135.061 193.68C135.434 193.333 135.621 192.747 135.621 191.92V188.88H135.461C135.167 189.6 134.647 190.147 133.901 190.52C133.154 190.893 132.367 191.08 131.541 191.08ZM135.621 183.64V176.44C135.621 176.147 135.461 176 135.141 176H131.381C130.527 176 129.927 176.187 129.581 176.56C129.234 176.907 129.061 177.507 129.061 178.36V184.32C129.061 185.173 129.234 185.773 129.581 186.12C129.927 186.467 130.527 186.64 131.381 186.64H132.861C134.701 186.64 135.621 185.64 135.621 183.64Z" fill="#FAFF00"/>
<path d="M152.243 192H151.283C149.176 192 147.549 191.44 146.403 190.32C145.256 189.2 144.683 187.587 144.683 185.48V178.12C144.683 176.013 145.256 174.4 146.403 173.28C147.549 172.16 149.176 171.6 151.283 171.6H160.523C161.109 171.6 161.403 171.88 161.403 172.44V191.16C161.403 191.72 161.109 192 160.523 192H157.163C156.603 192 156.323 191.72 156.323 191.16V189.84H156.163C155.869 190.56 155.349 191.107 154.603 191.48C153.856 191.827 153.069 192 152.243 192ZM156.323 184.56V176.44C156.323 176.147 156.163 176 155.843 176H152.083C151.229 176 150.629 176.187 150.283 176.56C149.936 176.907 149.763 177.507 149.763 178.36V185.24C149.763 186.093 149.936 186.707 150.283 187.08C150.629 187.427 151.229 187.6 152.083 187.6H153.563C155.403 187.6 156.323 186.587 156.323 184.56Z" fill="#FAFF00"/>
<path d="M170.026 192H166.626C166.066 192 165.786 191.72 165.786 191.16V172.44C165.786 171.88 166.066 171.6 166.626 171.6H170.026C170.586 171.6 170.866 171.88 170.866 172.44V173.76H171.026C171.613 172.32 172.919 171.6 174.946 171.6H176.226C180.413 171.6 182.506 173.773 182.506 178.12V191.16C182.506 191.72 182.213 192 181.626 192H178.266C177.706 192 177.426 191.72 177.426 191.16V178.36C177.426 177.507 177.239 176.907 176.866 176.56C176.519 176.187 175.919 176 175.066 176H173.626C171.786 176 170.866 177.013 170.866 179.04V191.16C170.866 191.72 170.586 192 170.026 192Z" fill="#FAFF00"/>
<path d="M186.923 168.16V164.68C186.923 164.147 187.19 163.88 187.723 163.88H191.203C191.737 163.88 192.003 164.133 192.003 164.64V168.16C192.003 168.693 191.737 168.96 191.203 168.96H187.723C187.19 168.96 186.923 168.693 186.923 168.16ZM186.923 191.16V172.44C186.923 171.88 187.19 171.6 187.723 171.6H191.163C191.723 171.6 192.003 171.88 192.003 172.44V191.16C192.003 191.507 191.937 191.733 191.803 191.84C191.697 191.947 191.497 192 191.203 192H187.763C187.203 192 186.923 191.72 186.923 191.16Z" fill="#FAFF00"/>
<path d="M195.646 191.16V189.84C195.646 188.933 195.9 188.16 196.406 187.52L204.886 176.12V175.96H196.846C196.286 175.96 196.006 175.667 196.006 175.08V172.44C196.006 171.88 196.286 171.6 196.846 171.6H209.886C210.446 171.6 210.726 171.88 210.726 172.44V174.84C210.726 175.693 210.513 176.387 210.086 176.92L202.246 187.48V187.64H210.326C210.886 187.64 211.166 187.933 211.166 188.52V191.16C211.166 191.72 210.886 192 210.326 192H196.486C195.926 192 195.646 191.72 195.646 191.16Z" fill="#FAFF00"/>
<path d="M229.615 192H220.775C218.668 192 217.042 191.44 215.895 190.32C214.748 189.2 214.175 187.587 214.175 185.48V178.12C214.175 176.013 214.748 174.4 215.895 173.28C217.042 172.16 218.668 171.6 220.775 171.6H223.935C226.042 171.6 227.668 172.16 228.815 173.28C229.962 174.4 230.535 176.013 230.535 178.12V183.2C230.535 183.76 230.255 184.04 229.695 184.04H219.655C219.335 184.04 219.175 184.187 219.175 184.48V185.36C219.175 186.187 219.348 186.787 219.695 187.16C220.068 187.507 220.682 187.68 221.535 187.68H229.615C230.175 187.68 230.455 187.973 230.455 188.56V191.2C230.455 191.493 230.388 191.707 230.255 191.84C230.148 191.947 229.935 192 229.615 192ZM219.655 180.64H225.095C225.388 180.64 225.535 180.493 225.535 180.2V178.28C225.535 177.427 225.362 176.827 225.015 176.48C224.668 176.133 224.068 175.96 223.215 175.96H221.535C220.682 175.96 220.082 176.133 219.735 176.48C219.388 176.827 219.215 177.427 219.215 178.28V180.2C219.215 180.493 219.362 180.64 219.655 180.64Z" fill="#FAFF00"/>
<path d="M250.85 192H243.25C242.716 192 242.45 191.72 242.45 191.16V188.6C242.45 188.307 242.503 188.107 242.61 188C242.716 187.867 242.93 187.8 243.25 187.8H249.93C251.236 187.8 251.89 187.4 251.89 186.6V186.4C251.89 185.76 251.343 185.147 250.25 184.56L246.29 182.36C244.93 181.667 243.93 180.92 243.29 180.12C242.65 179.32 242.33 178.293 242.33 177.04C242.33 175.173 242.823 173.8 243.81 172.92C244.796 172.04 246.343 171.6 248.45 171.6H255.13C255.663 171.6 255.93 171.88 255.93 172.44V175.04C255.93 175.333 255.876 175.547 255.77 175.68C255.663 175.787 255.45 175.84 255.13 175.84H249.57C248.263 175.84 247.61 176.173 247.61 176.84V177.04C247.61 177.627 248.183 178.227 249.33 178.84L253.37 181.24C254.756 181.987 255.73 182.76 256.29 183.56C256.85 184.333 257.13 185.36 257.13 186.64C257.13 190.213 255.036 192 250.85 192Z" fill="#FAFF00"/>
<path d="M275.709 192H266.869C264.762 192 263.135 191.44 261.989 190.32C260.842 189.2 260.269 187.587 260.269 185.48V178.12C260.269 176.013 260.842 174.4 261.989 173.28C263.135 172.16 264.762 171.6 266.869 171.6H270.029C272.135 171.6 273.762 172.16 274.909 173.28C276.055 174.4 276.629 176.013 276.629 178.12V183.2C276.629 183.76 276.349 184.04 275.789 184.04H265.749C265.429 184.04 265.269 184.187 265.269 184.48V185.36C265.269 186.187 265.442 186.787 265.789 187.16C266.162 187.507 266.775 187.68 267.629 187.68H275.709C276.269 187.68 276.549 187.973 276.549 188.56V191.2C276.549 191.493 276.482 191.707 276.349 191.84C276.242 191.947 276.029 192 275.709 192ZM265.749 180.64H271.189C271.482 180.64 271.629 180.493 271.629 180.2V178.28C271.629 177.427 271.455 176.827 271.109 176.48C270.762 176.133 270.162 175.96 269.309 175.96H267.629C266.775 175.96 266.175 176.133 265.829 176.48C265.482 176.827 265.309 177.427 265.309 178.28V180.2C265.309 180.493 265.455 180.64 265.749 180.64Z" fill="#FAFF00"/>
<path d="M287.794 192H286.474C284.421 192 282.861 191.44 281.794 190.32C280.754 189.2 280.234 187.587 280.234 185.48V172.44C280.234 171.88 280.514 171.6 281.074 171.6H284.474C285.034 171.6 285.314 171.88 285.314 172.44V185.24C285.314 186.093 285.488 186.707 285.834 187.08C286.208 187.427 286.808 187.6 287.634 187.6H289.114C290.954 187.6 291.874 186.587 291.874 184.56V172.44C291.874 171.88 292.154 171.6 292.714 171.6H296.074C296.661 171.6 296.954 171.88 296.954 172.44V191.16C296.954 191.72 296.661 192 296.074 192H292.714C292.154 192 291.874 191.72 291.874 191.16V189.84H291.714C291.421 190.56 290.901 191.107 290.154 191.48C289.408 191.827 288.621 192 287.794 192Z" fill="#FAFF00"/>
<path d="M309.092 192H301.492C300.959 192 300.692 191.72 300.692 191.16V188.6C300.692 188.307 300.745 188.107 300.852 188C300.959 187.867 301.172 187.8 301.492 187.8H308.172C309.479 187.8 310.132 187.4 310.132 186.6V186.4C310.132 185.76 309.585 185.147 308.492 184.56L304.532 182.36C303.172 181.667 302.172 180.92 301.532 180.12C300.892 179.32 300.572 178.293 300.572 177.04C300.572 175.173 301.065 173.8 302.052 172.92C303.039 172.04 304.585 171.6 306.692 171.6H313.372C313.905 171.6 314.172 171.88 314.172 172.44V175.04C314.172 175.333 314.118 175.547 314.012 175.68C313.905 175.787 313.692 175.84 313.372 175.84H307.812C306.505 175.84 305.852 176.173 305.852 176.84V177.04C305.852 177.627 306.425 178.227 307.572 178.84L311.612 181.24C312.999 181.987 313.972 182.76 314.532 183.56C315.092 184.333 315.372 185.36 315.372 186.64C315.372 190.213 313.279 192 309.092 192Z" fill="#FAFF00"/>
<path d="M145.966 208.16V204.68C145.966 204.147 146.233 203.88 146.766 203.88H150.246C150.78 203.88 151.046 204.133 151.046 204.64V208.16C151.046 208.693 150.78 208.96 150.246 208.96H146.766C146.233 208.96 145.966 208.693 145.966 208.16ZM144.406 238.64H141.726C141.166 238.64 140.886 238.36 140.886 237.8V235.08C140.886 234.52 141.166 234.24 141.726 234.24H142.846C144.046 234.24 144.86 234.027 145.286 233.6C145.74 233.173 145.966 232.36 145.966 231.16V212.44C145.966 211.88 146.246 211.6 146.806 211.6H150.206C150.766 211.6 151.046 211.88 151.046 212.44V232.08C151.046 234.16 150.46 235.773 149.286 236.92C148.113 238.067 146.486 238.64 144.406 238.64Z" fill="#FAFF00"/>
<path d="M165.409 232H161.849C159.743 232 158.116 231.44 156.969 230.32C155.823 229.2 155.249 227.587 155.249 225.48V218.12C155.249 216.013 155.823 214.4 156.969 213.28C158.116 212.16 159.743 211.6 161.849 211.6H165.409C167.489 211.6 169.103 212.173 170.249 213.32C171.423 214.44 172.009 216.04 172.009 218.12V225.48C172.009 227.56 171.423 229.173 170.249 230.32C169.103 231.44 167.489 232 165.409 232ZM162.609 227.64H164.649C165.503 227.64 166.103 227.467 166.449 227.12C166.823 226.773 167.009 226.173 167.009 225.32V218.28C167.009 217.427 166.823 216.827 166.449 216.48C166.103 216.133 165.503 215.96 164.649 215.96H162.609C161.756 215.96 161.156 216.133 160.809 216.48C160.463 216.827 160.289 217.427 160.289 218.28V225.32C160.289 226.173 160.463 226.773 160.809 227.12C161.156 227.467 161.756 227.64 162.609 227.64Z" fill="#FAFF00"/>
<path d="M183.201 231.08H181.881C179.827 231.08 178.267 230.52 177.201 229.4C176.161 228.28 175.641 226.667 175.641 224.56V218.12C175.641 216.013 176.214 214.4 177.361 213.28C178.507 212.16 180.134 211.6 182.241 211.6H191.481C192.067 211.6 192.361 211.88 192.361 212.44V232.16C192.361 234.24 191.774 235.84 190.601 236.96C189.454 238.08 187.841 238.64 185.761 238.64H178.081C177.761 238.64 177.534 238.573 177.401 238.44C177.294 238.333 177.241 238.133 177.241 237.84V235.08C177.241 234.52 177.521 234.24 178.081 234.24H184.921C185.774 234.24 186.374 234.053 186.721 233.68C187.094 233.333 187.281 232.747 187.281 231.92V228.88H187.121C186.827 229.6 186.307 230.147 185.561 230.52C184.814 230.893 184.027 231.08 183.201 231.08ZM187.281 223.64V216.44C187.281 216.147 187.121 216 186.801 216H183.041C182.187 216 181.587 216.187 181.241 216.56C180.894 216.907 180.721 217.507 180.721 218.36V224.32C180.721 225.173 180.894 225.773 181.241 226.12C181.587 226.467 182.187 226.64 183.041 226.64H184.521C186.361 226.64 187.281 225.64 187.281 223.64Z" fill="#FAFF00"/>
<path d="M206.503 232H202.943C200.836 232 199.21 231.44 198.063 230.32C196.916 229.2 196.343 227.587 196.343 225.48V218.12C196.343 216.013 196.916 214.4 198.063 213.28C199.21 212.16 200.836 211.6 202.943 211.6H206.503C208.583 211.6 210.196 212.173 211.343 213.32C212.516 214.44 213.103 216.04 213.103 218.12V225.48C213.103 227.56 212.516 229.173 211.343 230.32C210.196 231.44 208.583 232 206.503 232ZM203.703 227.64H205.743C206.596 227.64 207.196 227.467 207.543 227.12C207.916 226.773 208.103 226.173 208.103 225.32V218.28C208.103 217.427 207.916 216.827 207.543 216.48C207.196 216.133 206.596 215.96 205.743 215.96H203.703C202.85 215.96 202.25 216.133 201.903 216.48C201.556 216.827 201.383 217.427 201.383 218.28V225.32C201.383 226.173 201.556 226.773 201.903 227.12C202.25 227.467 202.85 227.64 203.703 227.64Z" fill="#FAFF00"/>
<path d="M224.815 232H217.215C216.681 232 216.415 231.72 216.415 231.16V228.6C216.415 228.307 216.468 228.107 216.575 228C216.681 227.867 216.895 227.8 217.215 227.8H223.895C225.201 227.8 225.855 227.4 225.855 226.6V226.4C225.855 225.76 225.308 225.147 224.215 224.56L220.255 222.36C218.895 221.667 217.895 220.92 217.255 220.12C216.615 219.32 216.295 218.293 216.295 217.04C216.295 215.173 216.788 213.8 217.775 212.92C218.761 212.04 220.308 211.6 222.415 211.6H229.095C229.628 211.6 229.895 211.88 229.895 212.44V215.04C229.895 215.333 229.841 215.547 229.735 215.68C229.628 215.787 229.415 215.84 229.095 215.84H223.535C222.228 215.84 221.575 216.173 221.575 216.84V217.04C221.575 217.627 222.148 218.227 223.295 218.84L227.335 221.24C228.721 221.987 229.695 222.76 230.255 223.56C230.815 224.333 231.095 225.36 231.095 226.64C231.095 230.213 229.001 232 224.815 232Z" fill="#FAFF00"/>
<defs>
<linearGradient id="paint0_linear_62074_843" x1="187.5" y1="0.999877" x2="187.5" y2="359.003" gradientUnits="userSpaceOnUse">
<stop stop-color="#E61C44"/>
<stop offset="1" stop-color="#E61C44" stop-opacity="0"/>
</linearGradient>
<linearGradient id="paint1_linear_62074_843" x1="187.5" y1="0.999877" x2="187.5" y2="359.003" gradientUnits="userSpaceOnUse">
<stop stop-color="#E61C44"/>
<stop offset="1" stop-color="#E61C44" stop-opacity="0"/>
</linearGradient>
<linearGradient id="paint2_linear_62074_843" x1="187.5" y1="0.999877" x2="187.5" y2="359.003" gradientUnits="userSpaceOnUse">
<stop stop-color="#E61C44"/>
<stop offset="1" stop-color="#E61C44" stop-opacity="0"/>
</linearGradient>
<linearGradient id="paint3_linear_62074_843" x1="187.5" y1="0.999877" x2="187.5" y2="359.003" gradientUnits="userSpaceOnUse">
<stop stop-color="#E61C44"/>
<stop offset="1" stop-color="#E61C44" stop-opacity="0"/>
</linearGradient>
<linearGradient id="paint4_linear_62074_843" x1="187.5" y1="0.999877" x2="187.5" y2="359.003" gradientUnits="userSpaceOnUse">
<stop stop-color="#E61C44"/>
<stop offset="1" stop-color="#E61C44" stop-opacity="0"/>
</linearGradient>
</defs>
</svg>
