<svg width="27" height="40" viewBox="0 0 27 40" fill="none" xmlns="http://www.w3.org/2000/svg">
<path d="M0 8.05C0 5.20255 0 3.77882 0.562933 2.69513C1.03731 1.78191 1.78191 1.03731 2.69513 0.562933C3.77882 0 5.20255 0 8.05 0H18.95C21.7975 0 23.2212 0 24.3049 0.562933C25.2181 1.03731 25.9627 1.78191 26.4371 2.69513C27 3.77882 27 5.20255 27 8.05V31.95C27 34.7975 27 36.2212 26.4371 37.3049C25.9627 38.2181 25.2181 38.9627 24.3049 39.4371C23.2212 40 21.7975 40 18.95 40H8.05C5.20255 40 3.77882 40 2.69513 39.4371C1.78191 38.9627 1.03731 38.2181 0.562933 37.3049C0 36.2212 0 34.7975 0 31.95V8.05Z" fill="#FAFF00"/>
</svg>
